<?xml version="1.0" encoding="utf-8"?>
<!-- Generator: Adobe Illustrator 24.0.0, SVG Export Plug-In . SVG Version: 6.00 Build 0)  -->
<svg version="1.1" id="Layer_1" xmlns="http://www.w3.org/2000/svg" xmlns:xlink="http://www.w3.org/1999/xlink" x="0px" y="0px"
	 viewBox="0 0 300 300" style="enable-background:new 0 0 300 300;" xml:space="preserve">
<style type="text/css">
	.st0{fill:#F9B0A3;}
	.st1{fill:#F69173;}
	.st2{fill:#3D597B;}
	.st3{fill:#30435B;}
	.st4{fill:#252626;}
	.st5{fill:#251617;}
</style>
<polygon id="Face" class="st0" points="164.8,173.8 164.8,152.1 89.1,152.1 89.1,64 176.9,64 176.9,86.1 185.9,86.1 185.9,173.8 "/>
<polygon id="Neck" class="st1" points="137.6,173.8 164.8,173.8 164.8,152.1 112.5,152.1 112.5,173.8 112.6,173.8 "/>
<polygon id="Shirt" class="st2" points="252.3,229.5 252.3,271.4 46.6,271.4 46.6,229.5 66.4,229.5 66.4,202.6 89.3,202.6 
	89.3,173.8 208.4,173.8 208.4,202.6 231.3,202.6 231.3,229.5 "/>
<g id="Collars">
	<polygon id="Right_Collar" class="st3" points="186,173.8 186,200.4 185.7,200.4 161,173.8 	"/>
	<polygon id="Left_Collar" class="st3" points="137.5,173.8 137.5,173.8 137.5,173.8 112.8,200.4 112.5,200.4 112.5,173.8 	"/>
</g>
<g id="Buttons">
	<rect id="Button3" x="142.3" y="244" class="st4" width="11.1" height="11.1"/>
	<rect id="Button2" x="142.3" y="215.7" class="st4" width="11.1" height="11.1"/>
	<rect id="Button1" x="142.3" y="187.5" class="st4" width="11.1" height="11.1"/>
</g>
<polygon id="Hair" class="st5" points="186,57 186,100.1 162.5,100.1 162.5,76.6 89.1,76.6 89.1,29.2 117.9,29.2 117.9,42.4 
	164.1,42.4 164.1,57 "/>
</svg>
